<svg width="1024" height="1024" viewBox="0 0 1024 1024" fill="none" xmlns="http://www.w3.org/2000/svg">
<g clip-path="url(#clip0_1082_5)">
<path d="M0 0H1024V1024H0V0Z" fill="black"/>
<path d="M280.937 246.07C292.494 245.408 304.778 249.572 315.277 253.962C351.549 269.128 382.323 293.635 410.735 320.359C483.874 295.717 539.879 296.26 612.918 320.212C639.581 295.546 743.561 205.336 772.237 268.253C793.763 315.494 777.983 391.99 761.857 439.801C785.086 479.87 809.965 523.454 810.772 571.568C811.562 618.909 782.669 654.91 751.419 686.916C751.928 704.528 751.524 716.318 748.739 733.73C745.257 750.108 738.347 776.262 718.641 778.275C694.926 780.703 690.134 746.79 688.309 730.974C662.424 744.648 634.947 755.069 606.505 762.003C511.928 785.208 403.937 772.938 319.801 722.344C275.169 695.505 228.93 650.938 216.109 598.845C202.859 545.004 234.582 484.609 261.785 439.877C253.419 414.658 247.297 388.75 243.49 362.454C238.967 328.949 235.291 251.643 280.937 246.07Z" fill="#FEFEFE"/>
<path d="M615.493 334.907C620.244 332.084 631.723 320.547 636.773 316.145C649.031 305.368 662.038 295.467 675.683 286.517C692.183 275.747 726.634 255.691 746.633 260.153C751.606 261.263 755.766 265.653 758.282 269.932C763.502 278.812 766.684 291.968 768.106 302.052C773.185 338.044 766.181 375.332 757.13 410.138C754.391 420.651 750.653 431.005 748.096 441.521C750.085 446.359 754.9 453.55 757.814 458.396C780.862 496.701 806.115 551.647 794.623 596.923C782.962 642.848 740.46 684.642 700.661 708.497C700.491 687.316 700.444 666.135 700.515 644.949C712.082 642.011 723.229 637.588 733.667 631.801C752.332 621.287 778.732 596.215 784.495 575.28C782.781 566.468 777.099 554.748 772.84 546.563C751.671 505.88 725.259 479.473 688.087 453.959C683.26 450.737 677.994 447.896 672.833 445.142C649.61 432.686 628.675 426.127 602.181 427.006C556.133 428.536 529.804 471.146 532.261 514.247C534.508 553.578 563.816 589.902 592.053 615.524C610.051 631.854 636.539 644.949 660.915 647.377C669.621 648.266 678.45 647.763 687.215 647.125L687.361 716.326C677.584 723.049 651.746 733.938 640.307 738.115C550.557 770.911 444.299 767.423 357.376 727.466C305.812 703.249 253.82 663.099 232.718 608.572C214.959 562.688 236.608 512.246 258.065 471.613C263.246 461.8 270.748 451.97 275.255 441.982L275.601 441.204C271.696 424.578 265.499 408.821 261.613 390.184C254.075 354.034 247.43 302.975 265.732 269.381C268.546 264.215 273.492 260.757 279.134 259.503C310.777 257.551 356.207 291.148 380.329 310.529C388.385 317.002 399.955 329.923 408.233 334.779C412.871 333.862 419.126 331.372 423.853 329.793C432.281 326.978 440.381 324.347 449.095 322.425C492.342 312.565 537.31 313.081 580.316 323.932C592.445 327.033 603.697 331.86 614.761 334.724L615.493 334.907Z" fill="black"/>
<path d="M410.25 426.927C437.612 425.395 460.306 433.92 476.025 457.193C489.804 477.632 494.778 502.759 489.826 526.906C482.641 563.522 447.793 605.843 417.124 626.69C387.928 646.537 358.842 651.844 324.423 645.028C293.61 637.228 269.391 622.115 250.483 596.183C245.585 589.466 241.146 583.036 239.008 574.903C242.473 555.149 268.191 515.649 282.23 499.968C314.089 464.389 361.271 429.94 410.25 426.927Z" fill="#FEFEFE"/>
<path d="M413.831 439.797C460.515 438.728 485.821 481.913 476.918 524.855C469.639 559.955 436.701 597.338 407.595 617.214C380.681 635.598 353.405 637.897 322.185 631.087C319.764 630.361 317.357 629.589 314.964 628.77C288.812 619.654 264.916 599.813 252.816 574.7C275.2 511.233 344.59 444.054 413.831 439.797Z" fill="black"/>
<path d="M404.254 503.428C434.163 499.198 442.771 551.916 412.849 563.326C383.181 567.17 377.306 522.679 396.232 507.577C398.894 505.453 401.167 504.628 404.254 503.428Z" fill="#FEFEFE"/>
<path d="M727.791 288.797C739.738 289.7 742.781 301.491 743.928 311.661C747 338.961 741.769 366.99 735.286 393.439C734.034 398.561 732.583 404.492 729.645 408.899C728.68 410.303 724.069 411.201 722.928 410.23C712.396 401.262 703.672 391.089 692.918 382.124C681.274 372.373 668.841 363.79 655.928 355.998C649.743 352.266 644.974 348.487 651.381 341.899C668.478 324.319 703.871 291.473 727.791 288.797Z" fill="#FEFEFE"/>
<path d="M727.512 302.125C730.262 303.491 731.145 312.739 731.35 315.697C733.064 340.651 728.787 367.607 722.099 391.635C713.557 382.952 704.529 374.761 695.056 367.102C684.664 358.792 676.578 353.43 665.479 346.062C682.704 330.361 704.646 308.645 727.512 302.125Z" fill="black"/>
<path d="M291.802 289.284C315.545 286.532 352.448 323.094 369.165 338.556C382.961 351.318 367.758 355.605 357.453 362.393C348.569 368.121 340.041 374.381 331.915 381.142C326.635 385.56 321.529 390.182 316.608 394.997C297.286 414.137 294.433 420.538 286.969 387.386C280.953 360.67 275.094 329.274 281.586 302.042C283.045 295.921 286.387 292.063 291.802 289.284Z" fill="#FEFEFE"/>
<path d="M295.526 301.828C315.787 306.779 343.121 331.628 358.356 346.157C348.333 352.085 337.975 359.625 328.875 366.861C318.669 375.14 310.907 382.566 301.502 391.629C294.995 371.024 287.064 321.514 295.526 301.828Z" fill="black"/>
<path d="M503.291 588.379C515.719 586.243 543.272 588.987 547.52 603.135C552.961 621.233 532.553 635.293 518.493 640.401C520.008 647.282 521.833 653.057 528.24 656.989C535.958 661.763 544.384 660.733 552.686 658.562C556.238 657.638 563.078 656.719 563.599 661.991C564.546 671.681 551.82 672.845 544.863 673.372C534.261 674.173 524.08 670.879 516.099 663.852C514.701 662.418 513.291 660.4 512.062 658.756C502.613 669.896 494.017 673.828 479.14 673.301C475.037 673.155 463.825 671.651 461.625 667.831C456.659 658.457 463.165 656.795 471.213 658.75C489.748 663.255 500.518 658.995 505.135 640.6C474.241 629.231 457.579 594.528 503.291 588.379Z" fill="#FEFEFE"/>
<path d="M505.59 601.252C511.488 600.702 522.464 600.849 528.064 602.867C546.079 609.374 525.092 623.574 517.146 627.161L511.851 628.676C505.028 627.143 498.159 623.287 493.355 618.209C480.941 605.085 495.412 602.434 505.59 601.252Z" fill="black"/>
<path d="M606.184 439.828C623.462 439.919 639.88 444.065 655.508 451.306C708.32 475.772 750.22 520.37 770.921 574.493C759.33 602.543 728.887 623.01 700.591 631.113C700.515 621.459 700.497 611.799 700.55 602.145C714.914 594.199 718.554 581.625 708.419 568.203C701.135 560.877 694.09 560.836 684.746 563.463C687.806 556.214 689.831 549.198 690.761 541.37C692.844 522.471 687.367 503.519 675.519 488.651C663.852 473.867 646.749 464.371 628.032 462.281C609.372 460.146 590.631 465.55 575.974 477.293C557.666 492.195 551.008 508.972 548.773 531.768C546.754 525.32 545.543 518.65 545.174 511.904C543.969 488.868 553.898 462.863 573.4 449.573C583.891 442.427 593.762 440.382 606.184 439.828Z" fill="black"/>
<path d="M612.04 475.719C643.893 471.283 673.295 493.545 677.66 525.406C682.024 557.265 659.697 586.614 627.832 590.915C596.06 595.192 566.823 572.952 562.469 541.192C558.116 509.433 580.292 480.142 612.04 475.719Z" fill="black"/>
<path d="M610.869 503.459C622.554 501.903 630.569 507.637 635.227 518.198C639.352 527.776 639.457 538.607 635.525 548.267C632.301 555.979 627.872 560.174 620.342 563.193C589.957 568.424 580.326 516.039 610.869 503.459Z" fill="#FEFEFE"/>
<path d="M672.51 581.719C672.837 582.181 674.44 589.635 675.031 591.238C677.12 596.891 682.234 599.635 687.225 602.086L687.237 634.115C662.089 636.789 645.015 632.945 622.904 621.278C611.699 614.865 604.696 609.049 595.229 600.571C603.256 603.333 611.693 604.708 620.183 604.649C641.628 604.544 657.636 596.668 672.51 581.719Z" fill="black"/>
<path d="M738.102 698.207C741.332 703.543 734.539 740.235 731.935 746.794C728.12 756.378 719.677 774.394 708.7 760.047C703.218 749.901 701.755 735.297 701.105 723.981C715.031 715.082 725.177 708.324 738.102 698.207Z" fill="black"/>
<path d="M692.094 575.062C696.073 574.208 700.005 576.701 700.935 580.662C701.865 584.623 699.455 588.596 695.511 589.602C692.896 590.269 690.116 589.473 688.256 587.513C686.389 585.559 685.734 582.745 686.53 580.164C687.325 577.584 689.455 575.63 692.094 575.062Z" fill="black"/>
</g>
<defs>
<clipPath id="clip0_1082_5">
<rect width="1024" height="1024" fill="white"/>
</clipPath>
</defs>
</svg>
